<svg width="15" height="15" viewBox="0 0 15 15" fill="none" xmlns="http://www.w3.org/2000/svg">
<path d="M7.5 8.5C8.05231 8.5 8.5 8.05225 8.5 7.5C8.5 6.94775 8.05231 6.5 7.5 6.5C6.94769 6.5 6.5 6.94775 6.5 7.5C6.5 8.05225 6.94769 8.5 7.5 8.5Z" fill="black"/>
<path d="M8.5 3.5C8.5 4.05225 8.05231 4.5 7.5 4.5C6.94769 4.5 6.5 4.05225 6.5 3.5C6.5 2.94775 6.94769 2.5 7.5 2.5C8.05231 2.5 8.5 2.94775 8.5 3.5Z" fill="black"/>
<path d="M7.5 12.5C8.05231 12.5 8.5 12.0522 8.5 11.5C8.5 10.9478 8.05231 10.5 7.5 10.5C6.94769 10.5 6.5 10.9478 6.5 11.5C6.5 12.0522 6.94769 12.5 7.5 12.5Z" fill="black"/>
<path d="M4.5 7.5C4.5 8.05225 4.05231 8.5 3.5 8.5C2.94769 8.5 2.5 8.05225 2.5 7.5C2.5 6.94775 2.94769 6.5 3.5 6.5C4.05231 6.5 4.5 6.94775 4.5 7.5Z" fill="black"/>
<path d="M11.5 8.5C12.0523 8.5 12.5 8.05225 12.5 7.5C12.5 6.94775 12.0523 6.5 11.5 6.5C10.9477 6.5 10.5 6.94775 10.5 7.5C10.5 8.05225 10.9477 8.5 11.5 8.5Z" fill="black"/>
<path fill-rule="evenodd" clip-rule="evenodd" d="M14.5 7.5C14.5 11.366 11.366 14.5 7.5 14.5C3.63403 14.5 0.5 11.366 0.5 7.5C0.5 3.63403 3.63403 0.5 7.5 0.5C11.366 0.5 14.5 3.63403 14.5 7.5ZM13.5 7.5C13.5 8.80884 13.0809 10.0198 12.3696 11.006C12.1976 10.7037 11.8726 10.5 11.5 10.5C10.9477 10.5 10.5 10.9478 10.5 11.5C10.5 11.8726 10.7038 12.1976 11.006 12.3696C10.0198 13.0809 8.80884 13.5 7.5 13.5C6.19116 13.5 4.98022 13.0809 3.99402 12.3696C4.2962 12.1976 4.5 11.8726 4.5 11.5C4.5 10.9478 4.05231 10.5 3.5 10.5C3.12738 10.5 2.80243 10.7037 2.63037 11.006C1.91907 10.0198 1.5 8.80884 1.5 7.5C1.5 6.19116 1.91907 4.98022 2.63037 3.99402C2.80243 4.29626 3.12738 4.5 3.5 4.5C4.05231 4.5 4.5 4.05225 4.5 3.5C4.5 3.12744 4.2962 2.80237 3.99402 2.63037C4.98022 1.91907 6.19116 1.5 7.5 1.5C8.80884 1.5 10.0198 1.91907 11.006 2.63037C10.7038 2.80237 10.5 3.12744 10.5 3.5C10.5 4.05225 10.9477 4.5 11.5 4.5C11.8726 4.5 12.1976 4.29626 12.3696 3.99402C13.0809 4.98022 13.5 6.19116 13.5 7.5Z" fill="black"/>
</svg>
