<?xml version="1.0" standalone="no"?>
<!DOCTYPE svg PUBLIC "-//W3C//DTD SVG 20010904//EN"
 "http://www.w3.org/TR/2001/REC-SVG-20010904/DTD/svg10.dtd">
<svg version="1.0" xmlns="http://www.w3.org/2000/svg"
 width="500.000000pt" height="500.000000pt" viewBox="0 0 500.000000 500.000000"
 preserveAspectRatio="xMidYMid meet">
<metadata>
Created by potrace 1.14, written by Peter Selinger 2001-2017
</metadata>
<g transform="translate(0.000000,500.000000) scale(0.100000,-0.100000)"
fill="#000000" stroke="none">
<path d="M2275 4554 c-165 -35 -239 -66 -255 -107 -20 -55 90 -99 244 -99 210
1 386 61 386 131 0 14 -16 27 -56 47 -50 24 -68 27 -177 29 -67 2 -131 1 -142
-1z"/>
<path d="M3552 4148 c-25 -12 -37 -46 -28 -76 4 -11 21 -38 39 -61 133 -167
514 -299 576 -199 50 80 -148 252 -372 323 -75 24 -179 30 -215 13z"/>
<path d="M1185 3967 c-201 -62 -405 -266 -407 -408 -1 -86 47 -125 152 -123
117 2 253 73 368 190 135 138 162 287 61 339 -33 17 -122 18 -174 2z"/>
<path d="M2500 3748 c-72 -9 -130 -30 -183 -66 -224 -155 -132 -433 150 -455
144 -12 303 66 359 175 25 48 29 131 10 181 -43 113 -189 185 -336 165z"/>
<path d="M4464 2917 c-30 -17 -43 -33 -61 -74 -72 -170 -49 -459 41 -519 53
-34 109 33 140 165 19 80 15 257 -8 327 -27 86 -70 124 -112 101z"/>
<path d="M513 2751 c-133 -82 -150 -456 -25 -576 65 -64 135 -47 186 45 40 74
53 136 51 240 -3 148 -49 259 -122 298 -31 17 -53 15 -90 -7z"/>
<path d="M3168 2594 c-2 -1 -19 -4 -38 -7 -151 -20 -273 -176 -256 -325 16
-135 101 -233 231 -267 214 -55 418 110 398 322 -13 140 -141 263 -285 276
-27 2 -49 3 -50 1z"/>
<path d="M1709 2500 c-66 -12 -135 -71 -174 -148 -87 -174 -26 -401 129 -477
48 -24 64 -26 113 -21 147 16 248 163 239 350 -10 191 -150 326 -307 296z"/>
<path d="M3963 1625 c-128 -61 -237 -239 -236 -387 2 -229 264 -169 390 91 81
167 43 320 -79 319 -15 0 -49 -11 -75 -23z"/>
<path d="M1105 1272 c-150 -18 -135 -237 28 -406 189 -196 419 -220 440 -46
16 135 -149 355 -319 426 -45 19 -110 30 -149 26z"/>
<path d="M2785 864 c-209 -36 -356 -162 -324 -277 39 -142 340 -183 553 -76
218 110 218 290 1 347 -64 17 -154 20 -230 6z"/>
</g>
</svg>
